<svg width="43" height="44" viewBox="0 0 43 44" fill="none" xmlns="http://www.w3.org/2000/svg">
<g filter="url(#filter0_d_103_519)">
<path d="M34.0833 14.1667C34.0833 13.7525 33.7475 13.4167 33.3333 13.4167C32.9191 13.4167 32.5833 13.7525 32.5833 14.1667H34.0833ZM32.5833 22.5C32.5833 22.9142 32.9191 23.25 33.3333 23.25C33.7475 23.25 34.0833 22.9142 34.0833 22.5H32.5833ZM29.1666 17.5833C28.7524 17.5833 28.4166 17.9191 28.4166 18.3333C28.4166 18.7475 28.7524 19.0833 29.1666 19.0833V17.5833ZM37.5 19.0833C37.9142 19.0833 38.25 18.7475 38.25 18.3333C38.25 17.9191 37.9142 17.5833 37.5 17.5833V19.0833ZM33.3333 35V35.75C33.7475 35.75 34.0833 35.4142 34.0833 35H33.3333ZM6.66663 35H5.91663C5.91663 35.4142 6.25241 35.75 6.66663 35.75V35ZM32.5833 14.1667V22.5H34.0833V14.1667H32.5833ZM29.1666 19.0833H37.5V17.5833H29.1666V19.0833ZM13.3333 25.75H26.6666V24.25H13.3333V25.75ZM32.5833 31.6667V35H34.0833V31.6667H32.5833ZM7.41663 35V31.6667H5.91663V35H7.41663ZM26.6666 25.75C29.9343 25.75 32.5833 28.399 32.5833 31.6667H34.0833C34.0833 27.5706 30.7627 24.25 26.6666 24.25V25.75ZM13.3333 24.25C9.23718 24.25 5.91663 27.5706 5.91663 31.6667H7.41663C7.41663 28.399 10.0656 25.75 13.3333 25.75V24.25ZM25.9166 11.6667C25.9166 14.9344 23.2676 17.5833 20 17.5833V19.0833C24.0961 19.0833 27.4166 15.7628 27.4166 11.6667H25.9166ZM20 17.5833C16.7323 17.5833 14.0833 14.9344 14.0833 11.6667H12.5833C12.5833 15.7628 15.9038 19.0833 20 19.0833V17.5833ZM14.0833 11.6667C14.0833 8.39898 16.7323 5.75 20 5.75V4.25C15.9038 4.25 12.5833 7.57055 12.5833 11.6667H14.0833ZM20 5.75C23.2676 5.75 25.9166 8.39898 25.9166 11.6667H27.4166C27.4166 7.57055 24.0961 4.25 20 4.25V5.75ZM6.66663 35.75H33.3333V34.25H6.66663V35.75Z" fill="#87C440"/>
</g>
<defs>
<filter id="filter0_d_103_519" x="1.91663" y="4.25" width="40.3334" height="39.5" filterUnits="userSpaceOnUse" color-interpolation-filters="sRGB">
<feFlood flood-opacity="0" result="BackgroundImageFix"/>
<feColorMatrix in="SourceAlpha" type="matrix" values="0 0 0 0 0 0 0 0 0 0 0 0 0 0 0 0 0 0 127 0" result="hardAlpha"/>
<feOffset dy="4"/>
<feGaussianBlur stdDeviation="2"/>
<feComposite in2="hardAlpha" operator="out"/>
<feColorMatrix type="matrix" values="0 0 0 0 0 0 0 0 0 0 0 0 0 0 0 0 0 0 0.25 0"/>
<feBlend mode="normal" in2="BackgroundImageFix" result="effect1_dropShadow_103_519"/>
<feBlend mode="normal" in="SourceGraphic" in2="effect1_dropShadow_103_519" result="shape"/>
</filter>
</defs>
</svg>
