<svg width="38" height="38" viewBox="0 0 38 38" fill="none" xmlns="http://www.w3.org/2000/svg">
<path d="M32.4167 11.0833C32.4167 10.6691 32.0809 10.3333 31.6667 10.3333C31.2525 10.3333 30.9167 10.6691 30.9167 11.0833H32.4167ZM30.9167 16.625C30.9167 17.0392 31.2525 17.375 31.6667 17.375C32.0809 17.375 32.4167 17.0392 32.4167 16.625H30.9167ZM32.4167 20.5834C32.4167 20.1692 32.0809 19.8334 31.6667 19.8334C31.2525 19.8334 30.9167 20.1692 30.9167 20.5834H32.4167ZM30.9167 20.5992C30.9167 21.0134 31.2525 21.3492 31.6667 21.3492C32.0809 21.3492 32.4167 21.0134 32.4167 20.5992H30.9167ZM31.6667 33.25V34C32.0809 34 32.4167 33.6642 32.4167 33.25H31.6667ZM6.33337 33.25H5.58337C5.58337 33.6642 5.91916 34 6.33337 34V33.25ZM30.9167 11.0833V16.625H32.4167V11.0833H30.9167ZM30.9167 20.5834V20.5992H32.4167V20.5834H30.9167ZM12.6667 24.5H25.3334V23H12.6667V24.5ZM30.9167 30.0833V33.25H32.4167V30.0833H30.9167ZM7.08337 33.25V30.0833H5.58337V33.25H7.08337ZM25.3334 24.5C28.417 24.5 30.9167 26.9997 30.9167 30.0833H32.4167C32.4167 26.1713 29.2454 23 25.3334 23V24.5ZM12.6667 23C8.75469 23 5.58337 26.1713 5.58337 30.0833H7.08337C7.08337 26.9997 9.58312 24.5 12.6667 24.5V23ZM24.5834 11.0833C24.5834 14.1669 22.0836 16.6667 19 16.6667V18.1667C22.9121 18.1667 26.0834 14.9953 26.0834 11.0833H24.5834ZM19 16.6667C15.9165 16.6667 13.4167 14.1669 13.4167 11.0833H11.9167C11.9167 14.9953 15.088 18.1667 19 18.1667V16.6667ZM13.4167 11.0833C13.4167 7.99974 15.9165 5.5 19 5.5V4C15.088 4 11.9167 7.17132 11.9167 11.0833H13.4167ZM19 5.5C22.0836 5.5 24.5834 7.99974 24.5834 11.0833H26.0834C26.0834 7.17132 22.9121 4 19 4V5.5ZM6.33337 34H31.6667V32.5H6.33337V34Z" fill="#87C440"/>
</svg>
