<svg width="40" height="29" viewBox="0 0 40 29" fill="none" xmlns="http://www.w3.org/2000/svg">
<circle cx="7.4825" cy="23.8426" r="3.90559" stroke="#87C440"/>
<circle cx="32.8671" cy="23.8426" r="3.90559" stroke="#87C440"/>
<path d="M0.5 5.2063C0.5 2.72102 2.51472 0.706299 5 0.706299H18.3077C20.2407 0.706299 21.8077 2.2733 21.8077 4.2063V15.0909H0.5V5.2063Z" stroke="#87C440"/>
<path d="M21.8077 3.01404H29.1539C32.1915 3.01404 34.6539 5.47647 34.6539 8.51404V15.091H21.8077V3.01404Z" stroke="#87C440"/>
<mask id="path-5-inside-1_103_583" fill="white">
<path fill-rule="evenodd" clip-rule="evenodd" d="M40 14.8217H0V23.2832H0.528669C1.60757 20.5268 4.22058 18.5824 7.27273 18.5824C10.3249 18.5824 12.9379 20.5268 14.0168 23.2832H25.9832C27.0621 20.5268 29.6751 18.5824 32.7273 18.5824C35.7794 18.5824 38.3924 20.5268 39.4713 23.2832H40V14.8217Z"/>
</mask>
<path d="M0 14.8217V13.8217H-1V14.8217H0ZM40 14.8217H41V13.8217H40V14.8217ZM0 23.2832H-1V24.2832H0V23.2832ZM0.528669 23.2832V24.2832H1.21113L1.45988 23.6477L0.528669 23.2832ZM14.0168 23.2832L13.0856 23.6477L13.3343 24.2832H14.0168V23.2832ZM25.9832 23.2832V24.2832H26.6657L26.9144 23.6477L25.9832 23.2832ZM39.4713 23.2832L38.5401 23.6477L38.7889 24.2832H39.4713V23.2832ZM40 23.2832V24.2832H41V23.2832H40ZM0 15.8217H40V13.8217H0V15.8217ZM1 23.2832V14.8217H-1V23.2832H1ZM0.528669 22.2832H0V24.2832H0.528669V22.2832ZM1.45988 23.6477C2.39988 21.2461 4.66192 19.5824 7.27273 19.5824V17.5824C3.77924 17.5824 0.815251 19.8075 -0.402539 22.9187L1.45988 23.6477ZM7.27273 19.5824C9.88354 19.5824 12.1456 21.2461 13.0856 23.6477L14.948 22.9187C13.7302 19.8075 10.7662 17.5824 7.27273 17.5824V19.5824ZM25.9832 22.2832H14.0168V24.2832H25.9832V22.2832ZM26.9144 23.6477C27.8544 21.2461 30.1165 19.5824 32.7273 19.5824V17.5824C29.2338 17.5824 26.2698 19.8075 25.052 22.9187L26.9144 23.6477ZM32.7273 19.5824C35.3381 19.5824 37.6001 21.2461 38.5401 23.6477L40.4025 22.9187C39.1847 19.8075 36.2208 17.5824 32.7273 17.5824V19.5824ZM40 22.2832H39.4713V24.2832H40V22.2832ZM39 14.8217V23.2832H41V14.8217H39Z" fill="#87C440" mask="url(#path-5-inside-1_103_583)"/>
</svg>
