<svg width="38" height="38" viewBox="0 0 38 38" fill="none" xmlns="http://www.w3.org/2000/svg">
<path d="M30.9167 33.25C30.9167 33.6642 31.2525 34 31.6667 34C32.0809 34 32.4167 33.6642 32.4167 33.25H30.9167ZM18.25 33.25C18.25 33.6642 18.5858 34 19 34C19.4143 34 19.75 33.6642 19.75 33.25H18.25ZM14.25 18.1667C14.6643 18.1667 15 17.8309 15 17.4167C15 17.0025 14.6643 16.6667 14.25 16.6667V18.1667ZM6.33337 16.6667C5.91916 16.6667 5.58337 17.0025 5.58337 17.4167C5.58337 17.8309 5.91916 18.1667 6.33337 18.1667V16.6667ZM30.9167 14.25C30.9167 14.6642 31.2525 15 31.6667 15C32.0809 15 32.4167 14.6642 32.4167 14.25H30.9167ZM12.6667 34C13.0809 34 13.4167 33.6642 13.4167 33.25C13.4167 32.8358 13.0809 32.5 12.6667 32.5V34ZM24.5 4.75C24.5 4.33579 24.1643 4 23.75 4C23.3358 4 23 4.33579 23 4.75H24.5ZM23 11.0833C23 11.4975 23.3358 11.8333 23.75 11.8333C24.1643 11.8333 24.5 11.4975 24.5 11.0833H23ZM15 4.75C15 4.33579 14.6643 4 14.25 4C13.8358 4 13.5 4.33579 13.5 4.75H15ZM13.5 11.0833C13.5 11.4975 13.8358 11.8333 14.25 11.8333C14.6643 11.8333 15 11.4975 15 11.0833H13.5ZM27.75 20.5833C27.75 21.918 26.6681 23 25.3334 23V24.5C27.4965 24.5 29.25 22.7464 29.25 20.5833H27.75ZM25.3334 23C23.9987 23 22.9167 21.918 22.9167 20.5833H21.4167C21.4167 22.7464 23.1703 24.5 25.3334 24.5V23ZM22.9167 20.5833C22.9167 19.2486 23.9987 18.1667 25.3334 18.1667V16.6667C23.1703 16.6667 21.4167 18.4202 21.4167 20.5833H22.9167ZM25.3334 18.1667C26.6681 18.1667 27.75 19.2486 27.75 20.5833H29.25C29.25 18.4202 27.4965 16.6667 25.3334 16.6667V18.1667ZM22.1667 29.25H28.5V27.75H22.1667V29.25ZM30.9167 31.6667V33.25H32.4167V31.6667H30.9167ZM19.75 33.25V31.6667H18.25V33.25H19.75ZM28.5 29.25C29.8347 29.25 30.9167 30.332 30.9167 31.6667H32.4167C32.4167 29.5036 30.6632 27.75 28.5 27.75V29.25ZM22.1667 27.75C20.0036 27.75 18.25 29.5036 18.25 31.6667H19.75C19.75 30.332 20.832 29.25 22.1667 29.25V27.75ZM14.25 16.6667H6.33337V18.1667H14.25V16.6667ZM7.08337 30.0833V11.0833H5.58337V30.0833H7.08337ZM9.50004 32.5C8.16535 32.5 7.08337 31.418 7.08337 30.0833H5.58337C5.58337 32.2464 7.33693 34 9.50004 34V32.5ZM9.50004 7.16667C7.33693 7.16667 5.58337 8.92022 5.58337 11.0833H7.08337C7.08337 9.74865 8.16535 8.66667 9.50004 8.66667V7.16667ZM32.4167 14.25V11.0833H30.9167V14.25H32.4167ZM28.5 8.66667C29.8347 8.66667 30.9167 9.74865 30.9167 11.0833H32.4167C32.4167 8.92022 30.6632 7.16667 28.5 7.16667V8.66667ZM28.5 7.16667H9.50004V8.66667H28.5V7.16667ZM9.50004 34H12.6667V32.5H9.50004V34ZM23 4.75V11.0833H24.5V4.75H23ZM13.5 4.75V11.0833H15V4.75H13.5Z" fill="#87C440"/>
</svg>
