<svg width="40" height="40" viewBox="0 0 40 40" fill="none" xmlns="http://www.w3.org/2000/svg">
<path d="M25.75 18.3333C25.75 17.9191 25.4142 17.5833 25 17.5833C24.5857 17.5833 24.25 17.9191 24.25 18.3333H25.75ZM15.75 18.3333C15.75 17.9191 15.4142 17.5833 15 17.5833C14.5857 17.5833 14.25 17.9191 14.25 18.3333H15.75ZM33.3333 11.6667H34.0833C34.0833 11.5502 34.0562 11.4354 34.0041 11.3313L33.3333 11.6667ZM30 5L30.6708 4.66459C30.5437 4.4105 30.284 4.25 30 4.25V5ZM9.99996 5V4.25C9.71588 4.25 9.45618 4.4105 9.32914 4.66459L9.99996 5ZM6.66663 11.6667L5.99581 11.3313C5.94373 11.4354 5.91663 11.5502 5.91663 11.6667H6.66663ZM24.25 18.3333C24.25 20.6805 22.3472 22.5833 20 22.5833V24.0833C23.1756 24.0833 25.75 21.509 25.75 18.3333H24.25ZM20 22.5833C17.6527 22.5833 15.75 20.6805 15.75 18.3333H14.25C14.25 21.509 16.8243 24.0833 20 24.0833V22.5833ZM34.0041 11.3313L30.6708 4.66459L29.3291 5.33541L32.6625 12.0021L34.0041 11.3313ZM30 4.25H9.99996V5.75H30V4.25ZM9.32914 4.66459L5.99581 11.3313L7.33745 12.0021L10.6708 5.33541L9.32914 4.66459ZM6.66663 12.4167H33.3333V10.9167H6.66663V12.4167ZM32.5833 11.6667V30H34.0833V11.6667H32.5833ZM30 32.5833H9.99996V34.0833H30V32.5833ZM7.41663 30V11.6667H5.91663V30H7.41663ZM9.99996 32.5833C8.57322 32.5833 7.41663 31.4267 7.41663 30H5.91663C5.91663 32.2552 7.7448 34.0833 9.99996 34.0833V32.5833ZM32.5833 30C32.5833 31.4267 31.4267 32.5833 30 32.5833V34.0833C32.2551 34.0833 34.0833 32.2552 34.0833 30H32.5833Z" fill="#87C440"/>
</svg>
