<svg width="46" height="46" viewBox="0 0 46 46" fill="none" xmlns="http://www.w3.org/2000/svg">
<path d="M17.25 29.9167C16.8358 29.9167 16.5 30.2525 16.5 30.6667C16.5 31.0809 16.8358 31.4167 17.25 31.4167V29.9167ZM28.75 16.0833C29.1642 16.0833 29.5 15.7475 29.5 15.3333C29.5 14.9191 29.1642 14.5833 28.75 14.5833V16.0833ZM22.25 34.5C22.25 34.9142 22.5858 35.25 23 35.25C23.4142 35.25 23.75 34.9142 23.75 34.5H22.25ZM23.75 11.5C23.75 11.0858 23.4142 10.75 23 10.75C22.5858 10.75 22.25 11.0858 22.25 11.5H23.75ZM39.5 23C39.5 32.1127 32.1127 39.5 23 39.5V41C32.9411 41 41 32.9411 41 23H39.5ZM23 39.5C13.8873 39.5 6.5 32.1127 6.5 23H5C5 32.9411 13.0589 41 23 41V39.5ZM6.5 23C6.5 13.8873 13.8873 6.5 23 6.5V5C13.0589 5 5 13.0589 5 23H6.5ZM23 6.5C32.1127 6.5 39.5 13.8873 39.5 23H41C41 13.0589 32.9411 5 23 5V6.5ZM21.0833 14.5833C20.3244 14.5833 19.2028 14.8048 18.2493 15.4913C17.2575 16.2054 16.5 17.3889 16.5 19.1667H18C18 17.8778 18.5202 17.1446 19.1257 16.7087C19.7695 16.2452 20.5645 16.0833 21.0833 16.0833V14.5833ZM16.5 19.1667C16.5 20.9444 17.2575 22.1279 18.2493 22.842C19.2028 23.5285 20.3244 23.75 21.0833 23.75V22.25C20.5645 22.25 19.7695 22.0882 19.1257 21.6247C18.5202 21.1887 18 20.4556 18 19.1667H16.5ZM21.0833 23.75H24.9167V22.25H21.0833V23.75ZM24.9167 23.75C25.4355 23.75 26.2305 23.9118 26.8743 24.3753C27.4798 24.8113 28 25.5444 28 26.8333H29.5C29.5 25.0556 28.7425 23.8721 27.7507 23.158C26.7972 22.4715 25.6756 22.25 24.9167 22.25V23.75ZM28 26.8333C28 28.1222 27.4798 28.8554 26.8743 29.2913C26.2305 29.7548 25.4355 29.9167 24.9167 29.9167V31.4167C25.6756 31.4167 26.7972 31.1952 27.7507 30.5086C28.7425 29.7946 29.5 28.6111 29.5 26.8333H28ZM24.9167 29.9167H23V31.4167H24.9167V29.9167ZM23 29.9167H17.25V31.4167H23V29.9167ZM28.75 14.5833H23V16.0833H28.75V14.5833ZM23 14.5833H21.0833V16.0833H23V14.5833ZM22.25 30.6667V34.5H23.75V30.6667H22.25ZM23.75 15.3333V11.5H22.25V15.3333H23.75Z" fill="#87C440"/>
</svg>
