<svg width="28" height="30" viewBox="0 0 28 30" fill="none" xmlns="http://www.w3.org/2000/svg">
<path d="M23.9011 22.3294C24.194 22.6223 24.6688 22.6223 24.9617 22.3294C25.2546 22.0365 25.2546 21.5616 24.9617 21.2687L23.9011 22.3294ZM21.9813 18.2883C21.6884 17.9954 21.2136 17.9954 20.9207 18.2883C20.6278 18.5812 20.6278 19.0561 20.9207 19.349L21.9813 18.2883ZM14 29.25H13.25C13.25 29.6642 13.5858 30 14 30V29.25ZM14 26.2696L13.4697 25.7393C13.3291 25.8799 13.25 26.0707 13.25 26.2696H14ZM23.6863 16.5833L24.2166 16.053C24.076 15.9124 23.8852 15.8333 23.6863 15.8333C23.4874 15.8333 23.2966 15.9124 23.156 16.053L23.6863 16.5833ZM26.6667 19.5637L27.197 20.0941C27.4899 19.8012 27.4899 19.3263 27.197 19.0334L26.6667 19.5637ZM16.9804 29.25V30C17.1793 30 17.3701 29.921 17.5108 29.7803L16.9804 29.25ZM9.25004 14.1667C9.66425 14.1667 10 13.8309 10 13.4167C10 13.0025 9.66425 12.6667 9.25004 12.6667V14.1667ZM1.33337 12.6667C0.91916 12.6667 0.583374 13.0025 0.583374 13.4167C0.583374 13.8309 0.91916 14.1667 1.33337 14.1667V12.6667ZM25.9167 10.25C25.9167 10.6642 26.2525 11 26.6667 11C27.0809 11 27.4167 10.6642 27.4167 10.25H25.9167ZM9.25004 30C9.66425 30 10 29.6642 10 29.25C10 28.8358 9.66425 28.5 9.25004 28.5V30ZM19.5 0.75C19.5 0.335786 19.1643 0 18.75 0C18.3358 0 18 0.335786 18 0.75H19.5ZM18 7.08333C18 7.49755 18.3358 7.83333 18.75 7.83333C19.1643 7.83333 19.5 7.49755 19.5 7.08333H18ZM10 0.75C10 0.335786 9.66425 0 9.25004 0C8.83583 0 8.50004 0.335786 8.50004 0.75H10ZM8.50004 7.08333C8.50004 7.49755 8.83583 7.83333 9.25004 7.83333C9.66425 7.83333 10 7.49755 10 7.08333H8.50004ZM24.9617 21.2687L21.9813 18.2883L20.9207 19.349L23.9011 22.3294L24.9617 21.2687ZM14.75 29.25V26.2696H13.25V29.25H14.75ZM23.156 17.1137L26.1364 20.0941L27.197 19.0334L24.2166 16.053L23.156 17.1137ZM16.9804 28.5H14V30H16.9804V28.5ZM14.5304 26.7999L24.2166 17.1137L23.156 16.053L13.4697 25.7393L14.5304 26.7999ZM26.1364 19.0334L16.4501 28.7197L17.5108 29.7803L27.197 20.0941L26.1364 19.0334ZM9.25004 12.6667H1.33337V14.1667H9.25004V12.6667ZM2.08337 26.0833V7.08333H0.583374V26.0833H2.08337ZM4.50004 28.5C3.16535 28.5 2.08337 27.418 2.08337 26.0833H0.583374C0.583374 28.2464 2.33693 30 4.50004 30V28.5ZM4.50004 3.16667C2.33693 3.16667 0.583374 4.92022 0.583374 7.08333H2.08337C2.08337 5.74865 3.16535 4.66667 4.50004 4.66667V3.16667ZM27.4167 10.25V7.08333H25.9167V10.25H27.4167ZM23.5 4.66667C24.8347 4.66667 25.9167 5.74865 25.9167 7.08333H27.4167C27.4167 4.92022 25.6632 3.16667 23.5 3.16667V4.66667ZM23.5 3.16667H4.50004V4.66667H23.5V3.16667ZM4.50004 30H9.25004V28.5H4.50004V30ZM18 0.75V7.08333H19.5V0.75H18ZM8.50004 0.75V7.08333H10V0.75H8.50004Z" fill="#87C440"/>
</svg>
